<svg width="512" height="512" viewBox="0 0 512 512" fill="none" xmlns="http://www.w3.org/2000/svg">
<g clip-path="url(#clip0_101_2)">
<path d="M256 512C397.385 512 512 397.385 512 256C512 114.615 397.385 0 256 0C114.615 0 0 114.615 0 256C0 397.385 114.615 512 256 512Z" fill="#171717"/>
<path d="M256.001 104.571C241.134 104.571 229.144 116.561 229.144 131.428V229.142H131.429C116.562 229.142 104.572 241.132 104.572 255.999C104.572 270.866 116.562 282.856 131.429 282.856H229.144V380.57C229.144 395.437 241.134 407.427 256.001 407.427C270.868 407.427 282.858 395.437 282.858 380.57V282.856H380.572C395.439 282.856 407.429 270.866 407.429 255.999C407.429 241.132 395.439 229.142 380.572 229.142H282.858V131.428C282.858 116.561 270.868 104.571 256.001 104.571Z" fill="url(#paint0_linear_101_2)"/>
</g>
<defs>
<linearGradient id="paint0_linear_101_2" x1="256" y1="104.571" x2="256" y2="407.427" gradientUnits="userSpaceOnUse">
<stop stop-color="#FF0059"/>
<stop offset="1" stop-color="#FF00C7"/>
</linearGradient>
<clipPath id="clip0_101_2">
<rect width="512" height="512" fill="white"/>
</clipPath>
</defs>
</svg>