<?xml version="1.0" encoding="UTF-8" standalone="no"?>
<!DOCTYPE svg PUBLIC "-//W3C//DTD SVG 1.1//EN" "http://www.w3.org/Graphics/SVG/1.1/DTD/svg11.dtd">
<svg width="100%" height="100%" viewBox="0 0 512 512" version="1.1" xmlns="http://www.w3.org/2000/svg" xmlns:xlink="http://www.w3.org/1999/xlink" xml:space="preserve" xmlns:serif="http://www.serif.com/" style="fill-rule:evenodd;clip-rule:evenodd;stroke-linejoin:round;stroke-miterlimit:2;">
    <g>
        <path d="M256,512C397.385,512 512,397.385 512,256C512,114.615 397.385,0 256,0C114.615,0 0,114.615 0,256C0,397.385 114.615,512 256,512Z" style="fill:white;fill-rule:nonzero;"/>
        <g transform="matrix(4.613636,0,0,4.613636,256,256)">
            <g transform="matrix(1,0,0,1,-22,-35.5)">
                <clipPath id="_clip1">
                    <rect x="0" y="0" width="44" height="71"/>
                </clipPath>
                <g clip-path="url(#_clip1)">
                    <g transform="matrix(1,0,0,1,-18553.9,-4266.42)">
                        <g transform="matrix(0.125445,0,0,0.125445,18804.9,4293.42)">
                            <g transform="matrix(1,0,0,1,-2000.88,-230.568)">
                                <path d="M138.553,15.333L273.576,80.639L282.401,80.639L346.824,35.631L346.824,128.294L273.576,128.294L273.576,360.392C273.576,362.157 274.164,364.805 275.341,368.335C275.341,368.923 275.488,369.805 275.782,370.982C276.076,372.159 276.812,373.335 277.989,374.512C280.342,381.572 285.637,393.045 293.874,408.93L338.881,475.118L338.881,478.648C338.881,479.824 339.47,481.001 340.646,482.178L340.646,485.708C340.646,486.296 340.94,486.884 341.529,487.473L341.529,491.885C340.94,492.473 340.646,493.356 340.646,494.533L340.646,498.063C340.058,498.651 339.764,499.386 339.764,500.269C339.764,501.152 339.322,503.064 338.44,506.005C337.557,508.947 336.822,510.859 336.234,511.742C335.645,512.624 335.057,513.948 334.469,515.713C333.88,517.478 332.998,518.949 331.821,520.125L325.644,526.303C324.467,526.891 323.29,527.774 322.114,528.95L319.466,531.598L232.098,581.018C230.922,581.018 228.568,580.43 225.038,579.253C221.508,578.076 218.861,577.194 217.096,576.606C212.389,574.841 207.094,573.37 201.211,572.193C197.681,571.016 192.68,569.546 186.208,567.78C183.266,567.192 177.971,566.31 170.323,565.133C146.79,562.191 130.316,560.72 120.903,560.72L112.96,560.72C112.372,560.72 103.841,561.897 87.368,564.25C87.956,564.25 82.073,565.133 69.718,566.898C67.364,567.486 64.423,568.369 60.893,569.546C59.716,569.546 54.715,571.016 45.89,573.958C44.125,573.958 41.625,574.546 38.389,575.723C35.153,576.9 29.711,578.076 22.063,579.253C20.886,579.253 19.415,579.547 17.65,580.136L12.355,580.136C11.767,580.136 10.002,580.43 7.06,581.018L1.765,581.018L0,564.25L93.545,449.525L7.06,387.75L7.06,77.109C58.834,69.46 102.665,49.457 138.553,17.098L138.553,15.333ZM189.738,376.277L85.603,504.24L96.193,501.593C103.253,499.828 110.313,498.945 117.373,498.945C120.903,497.769 126.492,497.18 134.14,497.18L142.083,497.18C186.208,497.18 232.981,508.064 282.401,529.833L285.049,521.89C263.28,498.945 245.042,476.588 230.333,454.82C213.272,428.933 199.74,403.341 189.738,378.042L189.738,376.277ZM90.898,86.816L90.898,354.215L142.083,389.515C165.616,371.865 181.501,350.979 189.738,326.857L189.738,122.999L90.898,86.816Z" style="fill:rgb(237,20,86);fill-rule:nonzero;"/>
                            </g>
                        </g>
                    </g>
                </g>
            </g>
        </g>
    </g>
</svg>
